<?xml version="1.0" encoding="UTF-8" standalone="no"?><!DOCTYPE svg PUBLIC "-//W3C//DTD SVG 1.1//EN" "http://www.w3.org/Graphics/SVG/1.1/DTD/svg11.dtd"><!-- Generated by graphviz version 2.40.1 (20161225.0304)
 --><!-- Title: graphname Pages: 1 --><svg xmlns="http://www.w3.org/2000/svg" xmlns:xlink="http://www.w3.org/1999/xlink" width="2674pt" height="680pt" viewBox="0.00 0.00 2673.87 679.67">
<g id="graph0" class="graph" transform="scale(1 1) rotate(0) translate(4 675.6679)">
<title>graphname</title>
<polygon fill="#ffffff" stroke="transparent" points="-4,4 -4,-675.6679 2669.8721,-675.6679 2669.8721,4 -4,4"/>
<!-- N66 -->
<g id="node1" class="node">
<title>N66</title>
<ellipse fill="none" stroke="#000000" cx="1437.9361" cy="-494.9828" rx="306.1216" ry="41.0911"/>
<text text-anchor="middle" x="1437.9361" y="-507.5828" font-family="Times,serif" font-size="14.00" fill="#000000">Kernel: _ZTSZZ4mainENKUlRN2cl4sycl7handlerEE34_26clES2_E3Sub</text>
<text text-anchor="middle" x="1437.9361" y="-490.7828" font-family="Times,serif" font-size="14.00" fill="#000000">Device: GPU</text>
<text text-anchor="middle" x="1437.9361" y="-473.9828" font-family="Times,serif" font-size="14.00" fill="#000000">Avg time: 41924.000000 ms, launched 2 time</text>
</g>
<!-- N66&#45;&gt;N66 -->
<g id="edge9" class="edge">
<title>N66-&gt;N66</title>
<path fill="none" stroke="#000000" d="M1738.6374,-502.9376C1753.4969,-500.9537 1762.2468,-498.3022 1762.2468,-494.9828 1762.2468,-492.4933 1757.325,-490.3794 1748.5952,-488.6412"/>
<polygon fill="#000000" stroke="#000000" points="1749.0684,-485.1723 1738.6374,-487.0281 1747.949,-492.0822 1749.0684,-485.1723"/>
<text text-anchor="middle" x="1783.6283" y="-490.7828" font-family="Times,serif" font-size="14.00" fill="#000000">write_8</text>
</g>
<!-- N101 -->
<g id="node2" class="node">
<title>N101</title>
<ellipse fill="none" stroke="#000000" cx="1091.9361" cy="-359.5928" rx="307.9081" ry="41.0911"/>
<text text-anchor="middle" x="1091.9361" y="-372.1928" font-family="Times,serif" font-size="14.00" fill="#000000">Kernel: _ZTSZZ4mainENKUlRN2cl4sycl7handlerEE46_26clES2_E3Add</text>
<text text-anchor="middle" x="1091.9361" y="-355.3928" font-family="Times,serif" font-size="14.00" fill="#000000">Device: GPU</text>
<text text-anchor="middle" x="1091.9361" y="-338.5928" font-family="Times,serif" font-size="14.00" fill="#000000">Avg time: 36.500000 ms, launched 2 time</text>
</g>
<!-- N66&#45;&gt;N101 -->
<g id="edge5" class="edge">
<title>N66-&gt;N101</title>
<path fill="none" stroke="#000000" d="M1295.4711,-458.4032C1273.8871,-451.5989 1252.0841,-443.9864 1231.8463,-435.6878 1210.564,-426.9609 1188.3392,-415.8703 1168.0318,-404.8737"/>
<polygon fill="#000000" stroke="#000000" points="1169.603,-401.7437 1159.1516,-400.006 1166.2382,-407.882 1169.603,-401.7437"/>
<text text-anchor="middle" x="1250.981" y="-423.0878" font-family="Times,serif" font-size="14.00" fill="#000000">read_4</text>
</g>
<!-- N66&#45;&gt;N101 -->
<g id="edge12" class="edge">
<title>N66-&gt;N101</title>
<path fill="none" stroke="#000000" d="M1332.5662,-456.2046C1318.5912,-449.9136 1304.6746,-443.0304 1291.8463,-435.6878 1281.1964,-429.5921 1280.7755,-424.6396 1269.9361,-418.8878 1257.7808,-412.4378 1244.7899,-406.5019 1231.5702,-401.086"/>
<polygon fill="#000000" stroke="#000000" points="1232.4976,-397.6878 1221.9125,-397.2344 1229.9045,-404.1898 1232.4976,-397.6878"/>
<text text-anchor="middle" x="1314.481" y="-423.0878" font-family="Times,serif" font-size="14.00" fill="#000000">read_11</text>
</g>
<!-- N101&#45;&gt;N66 -->
<g id="edge10" class="edge">
<title>N101-&gt;N66</title>
<path fill="none" stroke="#000000" d="M1273.3219,-393.0109C1296.6215,-400.1164 1319.7234,-408.6542 1340.9361,-418.8878 1356.5676,-426.4289 1372.0284,-436.8271 1385.8583,-447.516"/>
<polygon fill="#000000" stroke="#000000" points="1383.7939,-450.3459 1393.8017,-453.8235 1388.1469,-444.864 1383.7939,-450.3459"/>
<text text-anchor="middle" x="1389.3176" y="-423.0878" font-family="Times,serif" font-size="14.00" fill="#000000">write_9</text>
</g>
<!-- N101&#45;&gt;N101 -->
<g id="edge13" class="edge">
<title>N101-&gt;N101</title>
<path fill="none" stroke="#000000" d="M1394.1611,-367.5475C1409.0959,-365.5637 1417.8901,-362.9121 1417.8901,-359.5928 1417.8901,-357.1033 1412.9433,-354.9894 1404.1693,-353.2511"/>
<polygon fill="#000000" stroke="#000000" points="1404.5906,-349.7739 1394.1611,-351.638 1403.4767,-356.6847 1404.5906,-349.7739"/>
<text text-anchor="middle" x="1442.7716" y="-355.3928" font-family="Times,serif" font-size="14.00" fill="#000000">write_12</text>
</g>
<!-- N164 -->
<g id="node3" class="node">
<title>N164</title>
<ellipse fill="none" stroke="#000000" cx="1091.9361" cy="-200.4439" rx="177.8722" ry="65.1077"/>
<text text-anchor="middle" x="1091.9361" y="-229.8439" font-family="Times,serif" font-size="14.00" fill="#000000">Mem op type: Memory Transfer (Copy)</text>
<text text-anchor="middle" x="1091.9361" y="-213.0439" font-family="Times,serif" font-size="14.00" fill="#000000">Mem ptr: [0x7236d0]</text>
<text text-anchor="middle" x="1091.9361" y="-196.2439" font-family="Times,serif" font-size="14.00" fill="#000000">Device: HOST</text>
<text text-anchor="middle" x="1091.9361" y="-179.4439" font-family="Times,serif" font-size="14.00" fill="#000000">from: GPU to: HOST</text>
<text text-anchor="middle" x="1091.9361" y="-162.6439" font-family="Times,serif" font-size="14.00" fill="#000000">Avg time: 98.000000 ms, launched 1 time</text>
</g>
<!-- N101&#45;&gt;N164 -->
<g id="edge14" class="edge">
<title>N101-&gt;N164</title>
<path fill="none" stroke="#000000" d="M1091.9361,-318.1937C1091.9361,-305.1731 1091.9361,-290.3654 1091.9361,-275.7502"/>
<polygon fill="#000000" stroke="#000000" points="1095.4362,-275.687 1091.9361,-265.6871 1088.4362,-275.6871 1095.4362,-275.687"/>
<text text-anchor="middle" x="1114.481" y="-287.6977" font-family="Times,serif" font-size="14.00" fill="#000000">read_13</text>
</g>
<!-- N106 -->
<g id="node4" class="node">
<title>N106</title>
<ellipse fill="none" stroke="#000000" cx="1091.9361" cy="-41.295" rx="172.9726" ry="41.0911"/>
<text text-anchor="middle" x="1091.9361" y="-53.895" font-family="Times,serif" font-size="14.00" fill="#000000">Mem op type: Memory Deallocation</text>
<text text-anchor="middle" x="1091.9361" y="-37.095" font-family="Times,serif" font-size="14.00" fill="#000000">Mem ptr: [0x7236d0]</text>
<text text-anchor="middle" x="1091.9361" y="-20.295" font-family="Times,serif" font-size="14.00" fill="#000000">Avg time: 7.000000 ms, launched 1 time</text>
</g>
<!-- N164&#45;&gt;N106 -->
<g id="edge15" class="edge">
<title>N164-&gt;N106</title>
<path fill="none" stroke="#000000" d="M1091.9361,-135.2528C1091.9361,-121.1613 1091.9361,-106.4473 1091.9361,-92.9585"/>
<polygon fill="#000000" stroke="#000000" points="1095.4362,-92.913 1091.9361,-82.913 1088.4362,-92.913 1095.4362,-92.913"/>
<text text-anchor="middle" x="1180.3839" y="-104.7901" font-family="Times,serif" font-size="14.00" fill="#000000">Edge:Memory Deallocation_14</text>
</g>
<!-- N103 -->
<g id="node5" class="node">
<title>N103</title>
<ellipse fill="none" stroke="#000000" cx="556.9361" cy="-494.9828" rx="182.7717" ry="41.0911"/>
<text text-anchor="middle" x="556.9361" y="-507.5828" font-family="Times,serif" font-size="14.00" fill="#000000">Mem op type: Memory Allocation</text>
<text text-anchor="middle" x="556.9361" y="-490.7828" font-family="Times,serif" font-size="14.00" fill="#000000">Mem ptr: [0x84ea40]</text>
<text text-anchor="middle" x="556.9361" y="-473.9828" font-family="Times,serif" font-size="14.00" fill="#000000">Avg time: 250.000000 ms, launched 1 time</text>
</g>
<!-- N103&#45;&gt;N101 -->
<g id="edge4" class="edge">
<title>N103-&gt;N101</title>
<path fill="none" stroke="#000000" d="M659.7712,-460.8315C711.4998,-443.9079 768.6602,-425.6658 794.8463,-418.8878 828.0972,-410.2811 863.7163,-402.207 898.3316,-394.9538"/>
<polygon fill="#000000" stroke="#000000" points="899.4713,-398.2918 908.5499,-392.8301 898.0469,-391.4382 899.4713,-398.2918"/>
<text text-anchor="middle" x="813.981" y="-423.0878" font-family="Times,serif" font-size="14.00" fill="#000000">read_3</text>
</g>
<!-- N103&#45;&gt;N101 -->
<g id="edge11" class="edge">
<title>N103-&gt;N101</title>
<path fill="none" stroke="#000000" d="M689.3958,-466.4799C709.348,-462.1905 729.6845,-457.8208 748.9361,-453.6878 786.2664,-445.6736 795.9274,-445.0757 832.9361,-435.6878 874.4659,-425.153 919.3642,-412.4381 959.9289,-400.4436"/>
<polygon fill="#000000" stroke="#000000" points="961.0065,-403.7748 969.5974,-397.5742 959.0149,-397.064 961.0065,-403.7748"/>
<text text-anchor="middle" x="913.481" y="-423.0878" font-family="Times,serif" font-size="14.00" fill="#000000">read_10</text>
</g>
<!-- N102 -->
<g id="node10" class="node">
<title>N102</title>
<ellipse fill="none" stroke="#000000" cx="556.9361" cy="-359.5928" rx="177.8722" ry="41.0911"/>
<text text-anchor="middle" x="556.9361" y="-372.1928" font-family="Times,serif" font-size="14.00" fill="#000000">Mem op type: Memory Deallocation</text>
<text text-anchor="middle" x="556.9361" y="-355.3928" font-family="Times,serif" font-size="14.00" fill="#000000">Mem ptr: [0x84ea40]</text>
<text text-anchor="middle" x="556.9361" y="-338.5928" font-family="Times,serif" font-size="14.00" fill="#000000">Avg time: 13.000000 ms, launched 1 time</text>
</g>
<!-- N103&#45;&gt;N102 -->
<g id="edge18" class="edge">
<title>N103-&gt;N102</title>
<path fill="none" stroke="#000000" d="M556.9361,-453.6257C556.9361,-440.2343 556.9361,-425.2138 556.9361,-411.1749"/>
<polygon fill="#000000" stroke="#000000" points="560.4362,-411.1631 556.9361,-401.1632 553.4362,-411.1632 560.4362,-411.1631"/>
<text text-anchor="middle" x="645.3839" y="-423.0878" font-family="Times,serif" font-size="14.00" fill="#000000">Edge:Memory Deallocation_17</text>
</g>
<!-- N74 -->
<g id="node6" class="node">
<title>N74</title>
<ellipse fill="none" stroke="#000000" cx="2118.9361" cy="-630.3729" rx="172.9726" ry="41.0911"/>
<text text-anchor="middle" x="2118.9361" y="-642.9729" font-family="Times,serif" font-size="14.00" fill="#000000">Mem op type: Memory Allocation</text>
<text text-anchor="middle" x="2118.9361" y="-626.1729" font-family="Times,serif" font-size="14.00" fill="#000000">Mem ptr: [0x7237a0]</text>
<text text-anchor="middle" x="2118.9361" y="-609.3729" font-family="Times,serif" font-size="14.00" fill="#000000">Avg time: 6.000000 ms, launched 1 time</text>
</g>
<!-- N74&#45;&gt;N66 -->
<g id="edge3" class="edge">
<title>N74-&gt;N66</title>
<path fill="none" stroke="#000000" d="M2067.2764,-590.7843C2046.4983,-576.8924 2021.6349,-562.6717 1996.9361,-554.2779 1919.1379,-527.8384 1894.6637,-544.775 1812.9361,-536.2779 1771.1578,-531.9342 1726.7785,-527.1754 1683.7229,-522.482"/>
<polygon fill="#000000" stroke="#000000" points="1684.0082,-518.9924 1673.6875,-521.3866 1683.2486,-525.9511 1684.0082,-518.9924"/>
<text text-anchor="middle" x="2053.3176" y="-558.4779" font-family="Times,serif" font-size="14.00" fill="#000000">write_2</text>
</g>
<!-- N67 -->
<g id="node7" class="node">
<title>N67</title>
<ellipse fill="none" stroke="#000000" cx="177.9361" cy="-494.9828" rx="177.8722" ry="41.0911"/>
<text text-anchor="middle" x="177.9361" y="-507.5828" font-family="Times,serif" font-size="14.00" fill="#000000">Mem op type: Memory Deallocation</text>
<text text-anchor="middle" x="177.9361" y="-490.7828" font-family="Times,serif" font-size="14.00" fill="#000000">Mem ptr: [0x723530]</text>
<text text-anchor="middle" x="177.9361" y="-473.9828" font-family="Times,serif" font-size="14.00" fill="#000000">Avg time: 15.000000 ms, launched 1 time</text>
</g>
<!-- N107 -->
<g id="node8" class="node">
<title>N107</title>
<ellipse fill="none" stroke="#000000" cx="935.9361" cy="-494.9828" rx="177.8722" ry="41.0911"/>
<text text-anchor="middle" x="935.9361" y="-507.5828" font-family="Times,serif" font-size="14.00" fill="#000000">Mem op type: Memory Allocation</text>
<text text-anchor="middle" x="935.9361" y="-490.7828" font-family="Times,serif" font-size="14.00" fill="#000000">Mem ptr: [0x7236d0]</text>
<text text-anchor="middle" x="935.9361" y="-473.9828" font-family="Times,serif" font-size="14.00" fill="#000000">Avg time: 13.000000 ms, launched 1 time</text>
</g>
<!-- N107&#45;&gt;N101 -->
<g id="edge6" class="edge">
<title>N107-&gt;N101</title>
<path fill="none" stroke="#000000" d="M982.3188,-454.7279C999.3757,-439.9245 1018.8607,-423.0138 1036.6257,-407.5958"/>
<polygon fill="#000000" stroke="#000000" points="1039.3939,-409.8277 1044.6521,-400.6298 1034.8056,-404.5411 1039.3939,-409.8277"/>
<text text-anchor="middle" x="1045.3176" y="-423.0878" font-family="Times,serif" font-size="14.00" fill="#000000">write_5</text>
</g>
<!-- N73 -->
<g id="node9" class="node">
<title>N73</title>
<ellipse fill="none" stroke="#000000" cx="2487.9361" cy="-630.3729" rx="177.8722" ry="41.0911"/>
<text text-anchor="middle" x="2487.9361" y="-642.9729" font-family="Times,serif" font-size="14.00" fill="#000000">Mem op type: Memory Deallocation</text>
<text text-anchor="middle" x="2487.9361" y="-626.1729" font-family="Times,serif" font-size="14.00" fill="#000000">Mem ptr: [0x7237a0]</text>
<text text-anchor="middle" x="2487.9361" y="-609.3729" font-family="Times,serif" font-size="14.00" fill="#000000">Avg time: 11.000000 ms, launched 1 time</text>
</g>
<!-- N68 -->
<g id="node11" class="node">
<title>N68</title>
<ellipse fill="none" stroke="#000000" cx="1214.9361" cy="-630.3729" rx="182.7717" ry="41.0911"/>
<text text-anchor="middle" x="1214.9361" y="-642.9729" font-family="Times,serif" font-size="14.00" fill="#000000">Mem op type: Memory Allocation</text>
<text text-anchor="middle" x="1214.9361" y="-626.1729" font-family="Times,serif" font-size="14.00" fill="#000000">Mem ptr: [0x723530]</text>
<text text-anchor="middle" x="1214.9361" y="-609.3729" font-family="Times,serif" font-size="14.00" fill="#000000">Avg time: 284.000000 ms, launched 1 time</text>
</g>
<!-- N68&#45;&gt;N66 -->
<g id="edge1" class="edge">
<title>N68-&gt;N66</title>
<path fill="none" stroke="#000000" d="M1278.8389,-591.5755C1304.9692,-575.7111 1335.393,-557.2398 1362.5964,-540.7238"/>
<polygon fill="#000000" stroke="#000000" points="1364.5745,-543.6175 1371.306,-535.436 1360.9417,-537.6339 1364.5745,-543.6175"/>
<text text-anchor="middle" x="1358.981" y="-558.4779" font-family="Times,serif" font-size="14.00" fill="#000000">read_0</text>
</g>
<!-- N68&#45;&gt;N66 -->
<g id="edge7" class="edge">
<title>N68-&gt;N66</title>
<path fill="none" stroke="#000000" d="M1238.9067,-589.3752C1247.915,-576.7338 1259.1036,-563.6819 1271.8463,-554.2779 1280.4282,-547.9444 1289.75,-542.2367 1299.4514,-537.1017"/>
<polygon fill="#000000" stroke="#000000" points="1301.1143,-540.1828 1308.4572,-532.5453 1297.9542,-533.9367 1301.1143,-540.1828"/>
<text text-anchor="middle" x="1290.981" y="-558.4779" font-family="Times,serif" font-size="14.00" fill="#000000">read_6</text>
</g>
<!-- N68&#45;&gt;N67 -->
<g id="edge17" class="edge">
<title>N68-&gt;N67</title>
<path fill="none" stroke="#000000" d="M1042.0343,-616.6978C869.7582,-601.7897 598.0282,-574.8026 364.9361,-536.2779 348.0723,-533.4907 330.4402,-530.1575 313.0284,-526.6102"/>
<polygon fill="#000000" stroke="#000000" points="313.3109,-523.0947 302.8096,-524.4993 311.8947,-529.9499 313.3109,-523.0947"/>
<text text-anchor="middle" x="686.3839" y="-558.4779" font-family="Times,serif" font-size="14.00" fill="#000000">Edge:Memory Deallocation_16</text>
</g>
<!-- N70 -->
<g id="node12" class="node">
<title>N70</title>
<ellipse fill="none" stroke="#000000" cx="1994.9361" cy="-494.9828" rx="172.9726" ry="41.0911"/>
<text text-anchor="middle" x="1994.9361" y="-507.5828" font-family="Times,serif" font-size="14.00" fill="#000000">Mem op type: Memory Deallocation</text>
<text text-anchor="middle" x="1994.9361" y="-490.7828" font-family="Times,serif" font-size="14.00" fill="#000000">Mem ptr: [0x723600]</text>
<text text-anchor="middle" x="1994.9361" y="-473.9828" font-family="Times,serif" font-size="14.00" fill="#000000">Avg time: 6.000000 ms, launched 1 time</text>
</g>
<!-- N71 -->
<g id="node13" class="node">
<title>N71</title>
<ellipse fill="none" stroke="#000000" cx="1588.9361" cy="-630.3729" rx="172.9726" ry="41.0911"/>
<text text-anchor="middle" x="1588.9361" y="-642.9729" font-family="Times,serif" font-size="14.00" fill="#000000">Mem op type: Memory Allocation</text>
<text text-anchor="middle" x="1588.9361" y="-626.1729" font-family="Times,serif" font-size="14.00" fill="#000000">Mem ptr: [0x723600]</text>
<text text-anchor="middle" x="1588.9361" y="-609.3729" font-family="Times,serif" font-size="14.00" fill="#000000">Avg time: 8.000000 ms, launched 1 time</text>
</g>
<!-- N71&#45;&gt;N66 -->
<g id="edge2" class="edge">
<title>N71-&gt;N66</title>
<path fill="none" stroke="#000000" d="M1563.6611,-589.271C1555.1096,-577.1904 1544.9177,-564.4904 1533.9361,-554.2779 1529.2291,-549.9005 1524.1516,-545.6712 1518.8758,-541.6238"/>
<polygon fill="#000000" stroke="#000000" points="1520.5751,-538.5286 1510.447,-535.4183 1516.4249,-544.1657 1520.5751,-538.5286"/>
<text text-anchor="middle" x="1567.981" y="-558.4779" font-family="Times,serif" font-size="14.00" fill="#000000">read_1</text>
</g>
<!-- N71&#45;&gt;N66 -->
<g id="edge8" class="edge">
<title>N71-&gt;N66</title>
<path fill="none" stroke="#000000" d="M1519.0566,-592.5187C1509.45,-585.9651 1500.0733,-578.7628 1491.8463,-571.0779 1483.5189,-563.2993 1475.6955,-554.046 1468.7285,-544.7168"/>
<polygon fill="#000000" stroke="#000000" points="1471.5195,-542.6032 1462.8351,-536.5341 1465.8393,-546.6942 1471.5195,-542.6032"/>
<text text-anchor="middle" x="1510.981" y="-558.4779" font-family="Times,serif" font-size="14.00" fill="#000000">read_7</text>
</g>
<!-- N71&#45;&gt;N70 -->
<g id="edge16" class="edge">
<title>N71-&gt;N70</title>
<path fill="none" stroke="#000000" d="M1689.8173,-596.7317C1749.003,-576.9949 1823.8487,-552.0359 1884.5982,-531.7775"/>
<polygon fill="#000000" stroke="#000000" points="1885.8433,-535.0519 1894.2225,-528.5681 1883.6289,-528.4114 1885.8433,-535.0519"/>
<text text-anchor="middle" x="1904.3839" y="-558.4779" font-family="Times,serif" font-size="14.00" fill="#000000">Edge:Memory Deallocation_15</text>
</g>
</g>
</svg>