<?xml version="1.0" encoding="UTF-8" standalone="no"?><!DOCTYPE svg PUBLIC "-//W3C//DTD SVG 1.1//EN" "http://www.w3.org/Graphics/SVG/1.1/DTD/svg11.dtd"><!-- Generated by graphviz version 2.40.1 (20161225.0304)
 --><!-- Title: graphname Pages: 1 --><svg xmlns="http://www.w3.org/2000/svg" xmlns:xlink="http://www.w3.org/1999/xlink" width="2451pt" height="680pt" viewBox="0.00 0.00 2450.82 679.67">
<g id="graph0" class="graph" transform="scale(1 1) rotate(0) translate(4 675.6679)">
<title>graphname</title>
<polygon fill="#ffffff" stroke="transparent" points="-4,4 -4,-675.6679 2446.8219,-675.6679 2446.8219,4 -4,4"/>
<!-- N66 -->
<g id="node1" class="node">
<title>N66</title>
<ellipse fill="none" stroke="#000000" cx="1427.8858" cy="-494.9828" rx="306.1216" ry="41.0911"/>
<text text-anchor="middle" x="1427.8858" y="-507.5828" font-family="Times,serif" font-size="14.00" fill="#000000">Kernel: _ZTSZZ4mainENKUlRN2cl4sycl7handlerEE34_26clES2_E3Sub</text>
<text text-anchor="middle" x="1427.8858" y="-490.7828" font-family="Times,serif" font-size="14.00" fill="#000000">Device: GPU</text>
<text text-anchor="middle" x="1427.8858" y="-473.9828" font-family="Times,serif" font-size="14.00" fill="#000000">Avg time: 41671.500000 ms, launched 2 time</text>
</g>
<!-- N66&#45;&gt;N66 -->
<g id="edge12" class="edge">
<title>N66-&gt;N66</title>
<path fill="none" stroke="#000000" d="M1728.5871,-502.9376C1743.4466,-500.9537 1752.1966,-498.3022 1752.1966,-494.9828 1752.1966,-492.4933 1747.2747,-490.3794 1738.5449,-488.6412"/>
<polygon fill="#000000" stroke="#000000" points="1739.0181,-485.1723 1728.5871,-487.0281 1737.8987,-492.0822 1739.0181,-485.1723"/>
<text text-anchor="middle" x="1773.5781" y="-490.7828" font-family="Times,serif" font-size="14.00" fill="#000000">write_8</text>
</g>
<!-- N101 -->
<g id="node2" class="node">
<title>N101</title>
<ellipse fill="none" stroke="#000000" cx="855.8858" cy="-359.5928" rx="307.9081" ry="41.0911"/>
<text text-anchor="middle" x="855.8858" y="-372.1928" font-family="Times,serif" font-size="14.00" fill="#000000">Kernel: _ZTSZZ4mainENKUlRN2cl4sycl7handlerEE46_26clES2_E3Add</text>
<text text-anchor="middle" x="855.8858" y="-355.3928" font-family="Times,serif" font-size="14.00" fill="#000000">Device: GPU</text>
<text text-anchor="middle" x="855.8858" y="-338.5928" font-family="Times,serif" font-size="14.00" fill="#000000">Avg time: 31.500000 ms, launched 2 time</text>
</g>
<!-- N66&#45;&gt;N101 -->
<g id="edge13" class="edge">
<title>N66-&gt;N101</title>
<path fill="none" stroke="#000000" d="M1334.1744,-455.6074C1299.9449,-442.4082 1260.614,-428.5951 1223.8858,-418.8878 1180.4615,-407.4107 1133.5331,-397.7984 1088.1927,-389.8834"/>
<polygon fill="#000000" stroke="#000000" points="1088.6889,-386.4174 1078.2398,-388.1684 1087.5002,-393.3157 1088.6889,-386.4174"/>
<text text-anchor="middle" x="1294.9307" y="-423.0878" font-family="Times,serif" font-size="14.00" fill="#000000">read_4</text>
</g>
<!-- N101&#45;&gt;N66 -->
<g id="edge4" class="edge">
<title>N101-&gt;N66</title>
<path fill="none" stroke="#000000" d="M1007.882,-395.5696C1087.5838,-414.4347 1185.2255,-437.5461 1266.2994,-456.736"/>
<polygon fill="#000000" stroke="#000000" points="1265.5647,-460.1587 1276.1021,-459.0562 1267.1771,-453.3469 1265.5647,-460.1587"/>
<text text-anchor="middle" x="1198.2673" y="-423.0878" font-family="Times,serif" font-size="14.00" fill="#000000">write_9</text>
</g>
<!-- N101&#45;&gt;N101 -->
<g id="edge8" class="edge">
<title>N101-&gt;N101</title>
<path fill="none" stroke="#000000" d="M1158.1108,-367.5475C1173.0456,-365.5637 1181.8399,-362.9121 1181.8399,-359.5928 1181.8399,-357.1033 1176.8931,-354.9894 1168.1191,-353.2511"/>
<polygon fill="#000000" stroke="#000000" points="1168.5403,-349.7739 1158.1108,-351.638 1167.4265,-356.6847 1168.5403,-349.7739"/>
<text text-anchor="middle" x="1206.7214" y="-355.3928" font-family="Times,serif" font-size="14.00" fill="#000000">write_12</text>
</g>
<!-- N164 -->
<g id="node3" class="node">
<title>N164</title>
<ellipse fill="none" stroke="#000000" cx="855.8858" cy="-200.4439" rx="177.8722" ry="65.1077"/>
<text text-anchor="middle" x="855.8858" y="-229.8439" font-family="Times,serif" font-size="14.00" fill="#000000">Mem op type: Memory Transfer (Copy)</text>
<text text-anchor="middle" x="855.8858" y="-213.0439" font-family="Times,serif" font-size="14.00" fill="#000000">Mem ptr: [0xa186f0]</text>
<text text-anchor="middle" x="855.8858" y="-196.2439" font-family="Times,serif" font-size="14.00" fill="#000000">Device: HOST</text>
<text text-anchor="middle" x="855.8858" y="-179.4439" font-family="Times,serif" font-size="14.00" fill="#000000">from: GPU to: HOST</text>
<text text-anchor="middle" x="855.8858" y="-162.6439" font-family="Times,serif" font-size="14.00" fill="#000000">Avg time: 87.000000 ms, launched 1 time</text>
</g>
<!-- N101&#45;&gt;N164 -->
<g id="edge5" class="edge">
<title>N101-&gt;N164</title>
<path fill="none" stroke="#000000" d="M855.8858,-318.1937C855.8858,-305.1731 855.8858,-290.3654 855.8858,-275.7502"/>
<polygon fill="#000000" stroke="#000000" points="859.3859,-275.687 855.8858,-265.6871 852.3859,-275.6871 859.3859,-275.687"/>
<text text-anchor="middle" x="878.4307" y="-287.6977" font-family="Times,serif" font-size="14.00" fill="#000000">read_13</text>
</g>
<!-- N106 -->
<g id="node4" class="node">
<title>N106</title>
<ellipse fill="none" stroke="#000000" cx="855.8858" cy="-41.295" rx="172.9726" ry="41.0911"/>
<text text-anchor="middle" x="855.8858" y="-53.895" font-family="Times,serif" font-size="14.00" fill="#000000">Mem op type: Memory Deallocation</text>
<text text-anchor="middle" x="855.8858" y="-37.095" font-family="Times,serif" font-size="14.00" fill="#000000">Mem ptr: [0xa186f0]</text>
<text text-anchor="middle" x="855.8858" y="-20.295" font-family="Times,serif" font-size="14.00" fill="#000000">Avg time: 9.000000 ms, launched 1 time</text>
</g>
<!-- N164&#45;&gt;N106 -->
<g id="edge3" class="edge">
<title>N164-&gt;N106</title>
<path fill="none" stroke="#000000" d="M855.8858,-135.2528C855.8858,-121.1613 855.8858,-106.4473 855.8858,-92.9585"/>
<polygon fill="#000000" stroke="#000000" points="859.3859,-92.913 855.8858,-82.913 852.3859,-92.913 859.3859,-92.913"/>
<text text-anchor="middle" x="944.3336" y="-104.7901" font-family="Times,serif" font-size="14.00" fill="#000000">Edge:Memory Deallocation_14</text>
</g>
<!-- N103 -->
<g id="node5" class="node">
<title>N103</title>
<ellipse fill="none" stroke="#000000" cx="182.8858" cy="-494.9828" rx="182.7717" ry="41.0911"/>
<text text-anchor="middle" x="182.8858" y="-507.5828" font-family="Times,serif" font-size="14.00" fill="#000000">Mem op type: Memory Allocation</text>
<text text-anchor="middle" x="182.8858" y="-490.7828" font-family="Times,serif" font-size="14.00" fill="#000000">Mem ptr: [0xb43a60]</text>
<text text-anchor="middle" x="182.8858" y="-473.9828" font-family="Times,serif" font-size="14.00" fill="#000000">Avg time: 211.000000 ms, launched 1 time</text>
</g>
<!-- N103&#45;&gt;N101 -->
<g id="edge9" class="edge">
<title>N103-&gt;N101</title>
<path fill="none" stroke="#000000" d="M314.7619,-466.2797C334.8891,-461.9973 355.431,-457.6825 374.8858,-453.6878 471.6945,-433.8098 579.6686,-412.6005 668.7498,-395.3595"/>
<polygon fill="#000000" stroke="#000000" points="669.5334,-398.7729 678.6868,-393.4376 668.2041,-391.9003 669.5334,-398.7729"/>
<text text-anchor="middle" x="565.9307" y="-423.0878" font-family="Times,serif" font-size="14.00" fill="#000000">read_3</text>
</g>
<!-- N102 -->
<g id="node10" class="node">
<title>N102</title>
<ellipse fill="none" stroke="#000000" cx="182.8858" cy="-359.5928" rx="177.8722" ry="41.0911"/>
<text text-anchor="middle" x="182.8858" y="-372.1928" font-family="Times,serif" font-size="14.00" fill="#000000">Mem op type: Memory Deallocation</text>
<text text-anchor="middle" x="182.8858" y="-355.3928" font-family="Times,serif" font-size="14.00" fill="#000000">Mem ptr: [0xb43a60]</text>
<text text-anchor="middle" x="182.8858" y="-338.5928" font-family="Times,serif" font-size="14.00" fill="#000000">Avg time: 11.000000 ms, launched 1 time</text>
</g>
<!-- N103&#45;&gt;N102 -->
<g id="edge11" class="edge">
<title>N103-&gt;N102</title>
<path fill="none" stroke="#000000" d="M182.8858,-453.6257C182.8858,-440.2343 182.8858,-425.2138 182.8858,-411.1749"/>
<polygon fill="#000000" stroke="#000000" points="186.3859,-411.1631 182.8858,-401.1632 179.3859,-411.1632 186.3859,-411.1631"/>
<text text-anchor="middle" x="271.3336" y="-423.0878" font-family="Times,serif" font-size="14.00" fill="#000000">Edge:Memory Deallocation_17</text>
</g>
<!-- N74 -->
<g id="node6" class="node">
<title>N74</title>
<ellipse fill="none" stroke="#000000" cx="1427.8858" cy="-630.3729" rx="172.9726" ry="41.0911"/>
<text text-anchor="middle" x="1427.8858" y="-642.9729" font-family="Times,serif" font-size="14.00" fill="#000000">Mem op type: Memory Allocation</text>
<text text-anchor="middle" x="1427.8858" y="-626.1729" font-family="Times,serif" font-size="14.00" fill="#000000">Mem ptr: [0xa187c0]</text>
<text text-anchor="middle" x="1427.8858" y="-609.3729" font-family="Times,serif" font-size="14.00" fill="#000000">Avg time: 5.000000 ms, launched 1 time</text>
</g>
<!-- N74&#45;&gt;N66 -->
<g id="edge7" class="edge">
<title>N74-&gt;N66</title>
<path fill="none" stroke="#000000" d="M1427.8858,-589.0157C1427.8858,-575.6244 1427.8858,-560.6039 1427.8858,-546.5649"/>
<polygon fill="#000000" stroke="#000000" points="1431.3859,-546.5532 1427.8858,-536.5533 1424.3859,-546.5533 1431.3859,-546.5532"/>
<text text-anchor="middle" x="1449.2673" y="-558.4779" font-family="Times,serif" font-size="14.00" fill="#000000">write_2</text>
</g>
<!-- N67 -->
<g id="node7" class="node">
<title>N67</title>
<ellipse fill="none" stroke="#000000" cx="925.8858" cy="-494.9828" rx="177.8722" ry="41.0911"/>
<text text-anchor="middle" x="925.8858" y="-507.5828" font-family="Times,serif" font-size="14.00" fill="#000000">Mem op type: Memory Deallocation</text>
<text text-anchor="middle" x="925.8858" y="-490.7828" font-family="Times,serif" font-size="14.00" fill="#000000">Mem ptr: [0xa18550]</text>
<text text-anchor="middle" x="925.8858" y="-473.9828" font-family="Times,serif" font-size="14.00" fill="#000000">Avg time: 11.000000 ms, launched 1 time</text>
</g>
<!-- N107 -->
<g id="node8" class="node">
<title>N107</title>
<ellipse fill="none" stroke="#000000" cx="556.8858" cy="-494.9828" rx="172.9726" ry="41.0911"/>
<text text-anchor="middle" x="556.8858" y="-507.5828" font-family="Times,serif" font-size="14.00" fill="#000000">Mem op type: Memory Allocation</text>
<text text-anchor="middle" x="556.8858" y="-490.7828" font-family="Times,serif" font-size="14.00" fill="#000000">Mem ptr: [0xa186f0]</text>
<text text-anchor="middle" x="556.8858" y="-473.9828" font-family="Times,serif" font-size="14.00" fill="#000000">Avg time: 9.000000 ms, launched 1 time</text>
</g>
<!-- N107&#45;&gt;N101 -->
<g id="edge14" class="edge">
<title>N107-&gt;N101</title>
<path fill="none" stroke="#000000" d="M637.7995,-458.3443C675.186,-441.4154 719.8786,-421.1781 759.0434,-403.4439"/>
<polygon fill="#000000" stroke="#000000" points="760.6838,-406.5433 768.3496,-399.23 757.7963,-400.1666 760.6838,-406.5433"/>
<text text-anchor="middle" x="746.2673" y="-423.0878" font-family="Times,serif" font-size="14.00" fill="#000000">write_5</text>
</g>
<!-- N73 -->
<g id="node9" class="node">
<title>N73</title>
<ellipse fill="none" stroke="#000000" cx="2264.8858" cy="-630.3729" rx="177.8722" ry="41.0911"/>
<text text-anchor="middle" x="2264.8858" y="-642.9729" font-family="Times,serif" font-size="14.00" fill="#000000">Mem op type: Memory Deallocation</text>
<text text-anchor="middle" x="2264.8858" y="-626.1729" font-family="Times,serif" font-size="14.00" fill="#000000">Mem ptr: [0xa187c0]</text>
<text text-anchor="middle" x="2264.8858" y="-609.3729" font-family="Times,serif" font-size="14.00" fill="#000000">Avg time: 22.000000 ms, launched 1 time</text>
</g>
<!-- N68 -->
<g id="node11" class="node">
<title>N68</title>
<ellipse fill="none" stroke="#000000" cx="989.8858" cy="-630.3729" rx="182.7717" ry="41.0911"/>
<text text-anchor="middle" x="989.8858" y="-642.9729" font-family="Times,serif" font-size="14.00" fill="#000000">Mem op type: Memory Allocation</text>
<text text-anchor="middle" x="989.8858" y="-626.1729" font-family="Times,serif" font-size="14.00" fill="#000000">Mem ptr: [0xa18550]</text>
<text text-anchor="middle" x="989.8858" y="-609.3729" font-family="Times,serif" font-size="14.00" fill="#000000">Avg time: 334.000000 ms, launched 1 time</text>
</g>
<!-- N68&#45;&gt;N66 -->
<g id="edge10" class="edge">
<title>N68-&gt;N66</title>
<path fill="none" stroke="#000000" d="M1097.8745,-596.9926C1157.6286,-578.522 1232.3728,-555.4178 1295.6107,-535.8704"/>
<polygon fill="#000000" stroke="#000000" points="1296.7347,-539.1864 1305.255,-532.8892 1294.6674,-532.4986 1296.7347,-539.1864"/>
<text text-anchor="middle" x="1254.9307" y="-558.4779" font-family="Times,serif" font-size="14.00" fill="#000000">read_0</text>
</g>
<!-- N68&#45;&gt;N67 -->
<g id="edge1" class="edge">
<title>N68-&gt;N67</title>
<path fill="none" stroke="#000000" d="M970.3359,-589.0157C963.8225,-575.2367 956.4937,-559.733 949.694,-545.3484"/>
<polygon fill="#000000" stroke="#000000" points="952.754,-543.6317 945.316,-536.0867 946.4254,-546.6233 952.754,-543.6317"/>
<text text-anchor="middle" x="1050.3336" y="-558.4779" font-family="Times,serif" font-size="14.00" fill="#000000">Edge:Memory Deallocation_16</text>
</g>
<!-- N70 -->
<g id="node12" class="node">
<title>N70</title>
<ellipse fill="none" stroke="#000000" cx="1984.8858" cy="-494.9828" rx="172.9726" ry="41.0911"/>
<text text-anchor="middle" x="1984.8858" y="-507.5828" font-family="Times,serif" font-size="14.00" fill="#000000">Mem op type: Memory Deallocation</text>
<text text-anchor="middle" x="1984.8858" y="-490.7828" font-family="Times,serif" font-size="14.00" fill="#000000">Mem ptr: [0xa18620]</text>
<text text-anchor="middle" x="1984.8858" y="-473.9828" font-family="Times,serif" font-size="14.00" fill="#000000">Avg time: 8.000000 ms, launched 1 time</text>
</g>
<!-- N71 -->
<g id="node13" class="node">
<title>N71</title>
<ellipse fill="none" stroke="#000000" cx="1890.8858" cy="-630.3729" rx="177.8722" ry="41.0911"/>
<text text-anchor="middle" x="1890.8858" y="-642.9729" font-family="Times,serif" font-size="14.00" fill="#000000">Mem op type: Memory Allocation</text>
<text text-anchor="middle" x="1890.8858" y="-626.1729" font-family="Times,serif" font-size="14.00" fill="#000000">Mem ptr: [0xa18620]</text>
<text text-anchor="middle" x="1890.8858" y="-609.3729" font-family="Times,serif" font-size="14.00" fill="#000000">Avg time: 13.000000 ms, launched 1 time</text>
</g>
<!-- N71&#45;&gt;N66 -->
<g id="edge6" class="edge">
<title>N71-&gt;N66</title>
<path fill="none" stroke="#000000" d="M1779.9858,-597.9436C1715.8563,-579.1909 1634.5964,-555.429 1566.3034,-535.4588"/>
<polygon fill="#000000" stroke="#000000" points="1566.9055,-531.9883 1556.3251,-532.5409 1564.9408,-538.707 1566.9055,-531.9883"/>
<text text-anchor="middle" x="1706.9307" y="-558.4779" font-family="Times,serif" font-size="14.00" fill="#000000">read_1</text>
</g>
<!-- N71&#45;&gt;N70 -->
<g id="edge2" class="edge">
<title>N71-&gt;N70</title>
<path fill="none" stroke="#000000" d="M1919.344,-589.384C1929.1913,-575.2008 1940.3318,-559.1548 1950.5975,-544.3689"/>
<polygon fill="#000000" stroke="#000000" points="1953.6962,-546.0428 1956.5243,-535.8324 1947.9462,-542.0506 1953.6962,-546.0428"/>
<text text-anchor="middle" x="2032.3336" y="-558.4779" font-family="Times,serif" font-size="14.00" fill="#000000">Edge:Memory Deallocation_15</text>
</g>
</g>
</svg>