<?xml version="1.0" encoding="UTF-8" standalone="no"?><!DOCTYPE svg PUBLIC "-//W3C//DTD SVG 1.1//EN" "http://www.w3.org/Graphics/SVG/1.1/DTD/svg11.dtd"><!-- Generated by graphviz version 2.40.1 (20161225.0304)
 --><!-- Title: graphname Pages: 1 --><svg xmlns="http://www.w3.org/2000/svg" xmlns:xlink="http://www.w3.org/1999/xlink" width="2106pt" height="680pt" viewBox="0.00 0.00 2105.92 679.67">
<g id="graph0" class="graph" transform="scale(1 1) rotate(0) translate(4 675.6679)">
<title>graphname</title>
<polygon fill="#ffffff" stroke="transparent" points="-4,4 -4,-675.6679 2101.9224,-675.6679 2101.9224,4 -4,4"/>
<!-- N133 -->
<g id="node1" class="node">
<title>N133</title>
<ellipse fill="none" stroke="#000000" cx="1051.9863" cy="-200.4439" rx="177.8722" ry="65.1077"/>
<text text-anchor="middle" x="1051.9863" y="-229.8439" font-family="Times,serif" font-size="14.00" fill="#000000">Mem op type: Memory Transfer (Copy)</text>
<text text-anchor="middle" x="1051.9863" y="-213.0439" font-family="Times,serif" font-size="14.00" fill="#000000">Mem ptr: [0x13116d0]</text>
<text text-anchor="middle" x="1051.9863" y="-196.2439" font-family="Times,serif" font-size="14.00" fill="#000000">Device: HOST</text>
<text text-anchor="middle" x="1051.9863" y="-179.4439" font-family="Times,serif" font-size="14.00" fill="#000000">from: GPU to: HOST</text>
<text text-anchor="middle" x="1051.9863" y="-162.6439" font-family="Times,serif" font-size="14.00" fill="#000000">Avg time: 68.500000 ms, launched 2 time</text>
</g>
<!-- N106 -->
<g id="node2" class="node">
<title>N106</title>
<ellipse fill="none" stroke="#000000" cx="1051.9863" cy="-41.295" rx="172.9726" ry="41.0911"/>
<text text-anchor="middle" x="1051.9863" y="-53.895" font-family="Times,serif" font-size="14.00" fill="#000000">Mem op type: Memory Deallocation</text>
<text text-anchor="middle" x="1051.9863" y="-37.095" font-family="Times,serif" font-size="14.00" fill="#000000">Mem ptr: [0x13116d0]</text>
<text text-anchor="middle" x="1051.9863" y="-20.295" font-family="Times,serif" font-size="14.00" fill="#000000">Avg time: 6.500000 ms, launched 2 time</text>
</g>
<!-- N133&#45;&gt;N106 -->
<g id="edge8" class="edge">
<title>N133-&gt;N106</title>
<path fill="none" stroke="#000000" d="M963.0731,-143.9966C952.7625,-130.741 948.5687,-115.964 957.0907,-100.5901 960.0472,-95.2565 963.7055,-90.3395 967.8489,-85.8169"/>
<polygon fill="#000000" stroke="#000000" points="970.5478,-88.0726 975.2419,-78.5743 965.6492,-83.0722 970.5478,-88.0726"/>
<text text-anchor="middle" x="1042.9341" y="-104.7901" font-family="Times,serif" font-size="14.00" fill="#000000">Edge:Memory Deallocation_7</text>
</g>
<!-- N133&#45;&gt;N106 -->
<g id="edge19" class="edge">
<title>N133-&gt;N106</title>
<path fill="none" stroke="#000000" d="M1115.4507,-139.3285C1120.0694,-132.3581 1124.0566,-125.0058 1126.9863,-117.3901 1131.1165,-106.6537 1128.8443,-96.6535 1123.0293,-87.6629"/>
<polygon fill="#000000" stroke="#000000" points="1125.7036,-85.4014 1116.775,-79.6978 1120.1981,-89.7244 1125.7036,-85.4014"/>
<text text-anchor="middle" x="1218.4341" y="-104.7901" font-family="Times,serif" font-size="14.00" fill="#000000">Edge:Memory Deallocation_18</text>
</g>
<!-- N103 -->
<g id="node3" class="node">
<title>N103</title>
<ellipse fill="none" stroke="#000000" cx="546.9863" cy="-494.9828" rx="182.7717" ry="41.0911"/>
<text text-anchor="middle" x="546.9863" y="-507.5828" font-family="Times,serif" font-size="14.00" fill="#000000">Mem op type: Memory Allocation</text>
<text text-anchor="middle" x="546.9863" y="-490.7828" font-family="Times,serif" font-size="14.00" fill="#000000">Mem ptr: [0x143ca40]</text>
<text text-anchor="middle" x="546.9863" y="-473.9828" font-family="Times,serif" font-size="14.00" fill="#000000">Avg time: 123.000000 ms, launched 2 time</text>
</g>
<!-- N101 -->
<g id="node5" class="node">
<title>N101</title>
<ellipse fill="none" stroke="#000000" cx="1052.9863" cy="-359.5928" rx="307.9081" ry="41.0911"/>
<text text-anchor="middle" x="1052.9863" y="-372.1928" font-family="Times,serif" font-size="14.00" fill="#000000">Kernel: _ZTSZZ4mainENKUlRN2cl4sycl7handlerEE46_26clES2_E3Add</text>
<text text-anchor="middle" x="1052.9863" y="-355.3928" font-family="Times,serif" font-size="14.00" fill="#000000">Device: GPU</text>
<text text-anchor="middle" x="1052.9863" y="-338.5928" font-family="Times,serif" font-size="14.00" fill="#000000">Avg time: 30.500000 ms, launched 2 time</text>
</g>
<!-- N103&#45;&gt;N101 -->
<g id="edge4" class="edge">
<title>N103-&gt;N101</title>
<path fill="none" stroke="#000000" d="M664.9822,-463.4107C736.5354,-444.2653 828.4632,-419.6683 904.878,-399.222"/>
<polygon fill="#000000" stroke="#000000" points="905.8393,-402.588 914.5948,-396.6221 904.03,-395.8258 905.8393,-402.588"/>
<text text-anchor="middle" x="850.0312" y="-423.0878" font-family="Times,serif" font-size="14.00" fill="#000000">read_3</text>
</g>
<!-- N103&#45;&gt;N101 -->
<g id="edge15" class="edge">
<title>N103-&gt;N101</title>
<path fill="none" stroke="#000000" d="M676.3313,-465.7183C697.2258,-461.4079 718.6653,-457.2323 738.9863,-453.6878 798.183,-443.3623 815.021,-451.5273 872.9863,-435.6878 902.6843,-427.5726 933.9444,-415.6496 961.9279,-403.6379"/>
<polygon fill="#000000" stroke="#000000" points="963.5122,-406.7656 971.2854,-399.5664 960.7193,-400.3469 963.5122,-406.7656"/>
<text text-anchor="middle" x="946.5312" y="-423.0878" font-family="Times,serif" font-size="14.00" fill="#000000">read_14</text>
</g>
<!-- N102 -->
<g id="node10" class="node">
<title>N102</title>
<ellipse fill="none" stroke="#000000" cx="480.9863" cy="-359.5928" rx="172.9726" ry="41.0911"/>
<text text-anchor="middle" x="480.9863" y="-372.1928" font-family="Times,serif" font-size="14.00" fill="#000000">Mem op type: Memory Deallocation</text>
<text text-anchor="middle" x="480.9863" y="-355.3928" font-family="Times,serif" font-size="14.00" fill="#000000">Mem ptr: [0x143ca40]</text>
<text text-anchor="middle" x="480.9863" y="-338.5928" font-family="Times,serif" font-size="14.00" fill="#000000">Avg time: 8.500000 ms, launched 2 time</text>
</g>
<!-- N103&#45;&gt;N102 -->
<g id="edge11" class="edge">
<title>N103-&gt;N102</title>
<path fill="none" stroke="#000000" d="M418.8279,-465.4497C392.9647,-456.8845 371.1873,-446.8055 363.0907,-435.6878 352.6608,-421.3661 357.6718,-409.0403 370.1923,-398.7323"/>
<polygon fill="#000000" stroke="#000000" points="372.2643,-401.5535 378.372,-392.8964 368.1987,-395.8552 372.2643,-401.5535"/>
<text text-anchor="middle" x="452.4341" y="-423.0878" font-family="Times,serif" font-size="14.00" fill="#000000">Edge:Memory Deallocation_10</text>
</g>
<!-- N103&#45;&gt;N102 -->
<g id="edge22" class="edge">
<title>N103-&gt;N102</title>
<path fill="none" stroke="#000000" d="M548.2872,-453.3452C547.303,-441.7605 544.9307,-429.4638 539.9863,-418.8878 538.1874,-415.0398 536.0293,-411.2971 533.6176,-407.6858"/>
<polygon fill="#000000" stroke="#000000" points="536.3359,-405.475 527.5797,-399.5102 530.7051,-409.6336 536.3359,-405.475"/>
<text text-anchor="middle" x="634.4341" y="-423.0878" font-family="Times,serif" font-size="14.00" fill="#000000">Edge:Memory Deallocation_21</text>
</g>
<!-- N74 -->
<g id="node4" class="node">
<title>N74</title>
<ellipse fill="none" stroke="#000000" cx="987.9863" cy="-630.3729" rx="172.9726" ry="41.0911"/>
<text text-anchor="middle" x="987.9863" y="-642.9729" font-family="Times,serif" font-size="14.00" fill="#000000">Mem op type: Memory Allocation</text>
<text text-anchor="middle" x="987.9863" y="-626.1729" font-family="Times,serif" font-size="14.00" fill="#000000">Mem ptr: [0x13117a0]</text>
<text text-anchor="middle" x="987.9863" y="-609.3729" font-family="Times,serif" font-size="14.00" fill="#000000">Avg time: 5.500000 ms, launched 2 time</text>
</g>
<!-- N66 -->
<g id="node7" class="node">
<title>N66</title>
<ellipse fill="none" stroke="#000000" cx="1053.9863" cy="-494.9828" rx="306.1216" ry="41.0911"/>
<text text-anchor="middle" x="1053.9863" y="-507.5828" font-family="Times,serif" font-size="14.00" fill="#000000">Kernel: _ZTSZZ4mainENKUlRN2cl4sycl7handlerEE34_26clES2_E3Sub</text>
<text text-anchor="middle" x="1053.9863" y="-490.7828" font-family="Times,serif" font-size="14.00" fill="#000000">Device: GPU</text>
<text text-anchor="middle" x="1053.9863" y="-473.9828" font-family="Times,serif" font-size="14.00" fill="#000000">Avg time: 40865.000000 ms, launched 2 time</text>
</g>
<!-- N74&#45;&gt;N66 -->
<g id="edge3" class="edge">
<title>N74-&gt;N66</title>
<path fill="none" stroke="#000000" d="M982.7208,-588.7703C982.8148,-577.1861 984.452,-564.8809 989.2233,-554.2779 990.7853,-550.8068 992.6586,-547.4487 994.7678,-544.2147"/>
<polygon fill="#000000" stroke="#000000" points="997.741,-546.0797 1000.8496,-535.9511 992.1032,-541.9304 997.741,-546.0797"/>
<text text-anchor="middle" x="1011.3678" y="-558.4779" font-family="Times,serif" font-size="14.00" fill="#000000">write_2</text>
</g>
<!-- N74&#45;&gt;N66 -->
<g id="edge14" class="edge">
<title>N74-&gt;N66</title>
<path fill="none" stroke="#000000" d="M1020.9784,-589.7968C1025.0411,-583.7357 1028.8568,-577.3957 1031.9863,-571.0779 1035.8892,-563.1988 1039.2148,-554.5088 1042.0081,-545.9044"/>
<polygon fill="#000000" stroke="#000000" points="1045.3758,-546.8597 1044.938,-536.2739 1038.6789,-544.8222 1045.3758,-546.8597"/>
<text text-anchor="middle" x="1063.8678" y="-558.4779" font-family="Times,serif" font-size="14.00" fill="#000000">write_13</text>
</g>
<!-- N101&#45;&gt;N133 -->
<g id="edge7" class="edge">
<title>N101-&gt;N133</title>
<path fill="none" stroke="#000000" d="M1028.9167,-318.0947C1026.4436,-312.2762 1024.3199,-306.2481 1022.8965,-300.2977 1020.9038,-291.9672 1020.6484,-283.2954 1021.555,-274.6947"/>
<polygon fill="#000000" stroke="#000000" points="1025.0378,-275.0753 1023.1185,-264.6557 1018.1212,-273.998 1025.0378,-275.0753"/>
<text text-anchor="middle" x="1042.0312" y="-287.6977" font-family="Times,serif" font-size="14.00" fill="#000000">read_6</text>
</g>
<!-- N101&#45;&gt;N133 -->
<g id="edge18" class="edge">
<title>N101-&gt;N133</title>
<path fill="none" stroke="#000000" d="M1059.2917,-318.1958C1059.9945,-312.2038 1060.5966,-306.1017 1060.9863,-300.2977 1061.5211,-292.3341 1061.5756,-284.0195 1061.3046,-275.7353"/>
<polygon fill="#000000" stroke="#000000" points="1064.7971,-275.4924 1060.8231,-265.6711 1057.8051,-275.827 1064.7971,-275.4924"/>
<text text-anchor="middle" x="1084.5312" y="-287.6977" font-family="Times,serif" font-size="14.00" fill="#000000">read_17</text>
</g>
<!-- N67 -->
<g id="node6" class="node">
<title>N67</title>
<ellipse fill="none" stroke="#000000" cx="172.9863" cy="-494.9828" rx="172.9726" ry="41.0911"/>
<text text-anchor="middle" x="172.9863" y="-507.5828" font-family="Times,serif" font-size="14.00" fill="#000000">Mem op type: Memory Deallocation</text>
<text text-anchor="middle" x="172.9863" y="-490.7828" font-family="Times,serif" font-size="14.00" fill="#000000">Mem ptr: [0x1311530]</text>
<text text-anchor="middle" x="172.9863" y="-473.9828" font-family="Times,serif" font-size="14.00" fill="#000000">Avg time: 9.500000 ms, launched 2 time</text>
</g>
<!-- N66&#45;&gt;N101 -->
<g id="edge5" class="edge">
<title>N66-&gt;N101</title>
<path fill="none" stroke="#000000" d="M1030.0571,-453.8139C1027.524,-447.8937 1025.3468,-441.7505 1023.8965,-435.6878 1021.9099,-427.383 1022.4784,-418.763 1024.5072,-410.4384"/>
<polygon fill="#000000" stroke="#000000" points="1027.8651,-411.4266 1027.494,-400.8382 1021.1812,-409.3469 1027.8651,-411.4266"/>
<text text-anchor="middle" x="1043.0312" y="-423.0878" font-family="Times,serif" font-size="14.00" fill="#000000">read_4</text>
</g>
<!-- N66&#45;&gt;N101 -->
<g id="edge16" class="edge">
<title>N66-&gt;N101</title>
<path fill="none" stroke="#000000" d="M1061.0634,-453.5551C1062.2394,-442.3184 1062.8359,-430.147 1061.9863,-418.8878 1061.7944,-416.344 1061.5567,-413.7441 1061.2839,-411.122"/>
<polygon fill="#000000" stroke="#000000" points="1064.7334,-410.4887 1060.0794,-400.9708 1057.7822,-411.3135 1064.7334,-410.4887"/>
<text text-anchor="middle" x="1085.5312" y="-423.0878" font-family="Times,serif" font-size="14.00" fill="#000000">read_15</text>
</g>
<!-- N107 -->
<g id="node8" class="node">
<title>N107</title>
<ellipse fill="none" stroke="#000000" cx="1919.9863" cy="-494.9828" rx="177.8722" ry="41.0911"/>
<text text-anchor="middle" x="1919.9863" y="-507.5828" font-family="Times,serif" font-size="14.00" fill="#000000">Mem op type: Memory Allocation</text>
<text text-anchor="middle" x="1919.9863" y="-490.7828" font-family="Times,serif" font-size="14.00" fill="#000000">Mem ptr: [0x13116d0]</text>
<text text-anchor="middle" x="1919.9863" y="-473.9828" font-family="Times,serif" font-size="14.00" fill="#000000">Avg time: 10.500000 ms, launched 2 time</text>
</g>
<!-- N107&#45;&gt;N101 -->
<g id="edge6" class="edge">
<title>N107-&gt;N101</title>
<path fill="none" stroke="#000000" d="M1794.0222,-465.728C1773.6703,-461.4164 1752.7853,-457.2379 1732.9863,-453.6878 1588.0718,-427.7036 1424.6747,-404.8865 1294.3759,-388.2303"/>
<polygon fill="#000000" stroke="#000000" points="1294.6228,-384.7336 1284.2605,-386.9411 1293.7378,-391.6774 1294.6228,-384.7336"/>
<text text-anchor="middle" x="1643.3678" y="-423.0878" font-family="Times,serif" font-size="14.00" fill="#000000">write_5</text>
</g>
<!-- N107&#45;&gt;N101 -->
<g id="edge17" class="edge">
<title>N107-&gt;N101</title>
<path fill="none" stroke="#000000" d="M1822.1847,-460.4007C1776.226,-445.4298 1720.3574,-429.0427 1668.9863,-418.8878 1565.4538,-398.4217 1450.6792,-384.9315 1348.5331,-376.0771"/>
<polygon fill="#000000" stroke="#000000" points="1348.6336,-372.573 1338.3717,-375.2079 1348.037,-379.5475 1348.6336,-372.573"/>
<text text-anchor="middle" x="1763.8678" y="-423.0878" font-family="Times,serif" font-size="14.00" fill="#000000">write_16</text>
</g>
<!-- N73 -->
<g id="node9" class="node">
<title>N73</title>
<ellipse fill="none" stroke="#000000" cx="1716.9863" cy="-630.3729" rx="172.9726" ry="41.0911"/>
<text text-anchor="middle" x="1716.9863" y="-642.9729" font-family="Times,serif" font-size="14.00" fill="#000000">Mem op type: Memory Deallocation</text>
<text text-anchor="middle" x="1716.9863" y="-626.1729" font-family="Times,serif" font-size="14.00" fill="#000000">Mem ptr: [0x13117a0]</text>
<text text-anchor="middle" x="1716.9863" y="-609.3729" font-family="Times,serif" font-size="14.00" fill="#000000">Avg time: 8.500000 ms, launched 2 time</text>
</g>
<!-- N68 -->
<g id="node11" class="node">
<title>N68</title>
<ellipse fill="none" stroke="#000000" cx="551.9863" cy="-630.3729" rx="182.7717" ry="41.0911"/>
<text text-anchor="middle" x="551.9863" y="-642.9729" font-family="Times,serif" font-size="14.00" fill="#000000">Mem op type: Memory Allocation</text>
<text text-anchor="middle" x="551.9863" y="-626.1729" font-family="Times,serif" font-size="14.00" fill="#000000">Mem ptr: [0x1311530]</text>
<text text-anchor="middle" x="551.9863" y="-609.3729" font-family="Times,serif" font-size="14.00" fill="#000000">Avg time: 165.000000 ms, launched 2 time</text>
</g>
<!-- N68&#45;&gt;N67 -->
<g id="edge10" class="edge">
<title>N68-&gt;N67</title>
<path fill="none" stroke="#000000" d="M391.4111,-610.4416C327.7076,-600.4381 263.2008,-587.035 236.0907,-571.0779 224.4223,-564.2098 213.9527,-554.3482 205.0512,-543.9904"/>
<polygon fill="#000000" stroke="#000000" points="207.5844,-541.5584 198.5559,-536.0144 202.1565,-545.9786 207.5844,-541.5584"/>
<text text-anchor="middle" x="321.9341" y="-558.4779" font-family="Times,serif" font-size="14.00" fill="#000000">Edge:Memory Deallocation_9</text>
</g>
<!-- N68&#45;&gt;N67 -->
<g id="edge21" class="edge">
<title>N68-&gt;N67</title>
<path fill="none" stroke="#000000" d="M485.8913,-591.7934C461.37,-578.5954 432.9555,-564.5781 405.9863,-554.2779 376.4304,-542.9897 343.9507,-533.1879 312.8695,-524.9819"/>
<polygon fill="#000000" stroke="#000000" points="313.3916,-521.5014 302.8328,-522.3738 311.6311,-528.2764 313.3916,-521.5014"/>
<text text-anchor="middle" x="532.4341" y="-558.4779" font-family="Times,serif" font-size="14.00" fill="#000000">Edge:Memory Deallocation_20</text>
</g>
<!-- N68&#45;&gt;N66 -->
<g id="edge1" class="edge">
<title>N68-&gt;N66</title>
<path fill="none" stroke="#000000" d="M657.6492,-596.5482C702.0133,-582.7771 754.2739,-567.1146 801.8965,-554.2779 829.079,-546.9508 858.046,-539.6606 886.2983,-532.8276"/>
<polygon fill="#000000" stroke="#000000" points="887.3543,-536.1735 896.2576,-530.4304 885.7162,-529.3678 887.3543,-536.1735"/>
<text text-anchor="middle" x="821.0312" y="-558.4779" font-family="Times,serif" font-size="14.00" fill="#000000">read_0</text>
</g>
<!-- N68&#45;&gt;N66 -->
<g id="edge12" class="edge">
<title>N68-&gt;N66</title>
<path fill="none" stroke="#000000" d="M695.7523,-604.8453C742.1188,-595.5302 793.5233,-584.0542 839.9863,-571.0779 874.1205,-561.5447 910.6645,-549.3259 943.7188,-537.4823"/>
<polygon fill="#000000" stroke="#000000" points="945.1815,-540.6755 953.3997,-533.9889 942.8054,-534.0911 945.1815,-540.6755"/>
<text text-anchor="middle" x="916.5312" y="-558.4779" font-family="Times,serif" font-size="14.00" fill="#000000">read_11</text>
</g>
<!-- N70 -->
<g id="node12" class="node">
<title>N70</title>
<ellipse fill="none" stroke="#000000" cx="1550.9863" cy="-494.9828" rx="172.9726" ry="41.0911"/>
<text text-anchor="middle" x="1550.9863" y="-507.5828" font-family="Times,serif" font-size="14.00" fill="#000000">Mem op type: Memory Deallocation</text>
<text text-anchor="middle" x="1550.9863" y="-490.7828" font-family="Times,serif" font-size="14.00" fill="#000000">Mem ptr: [0x1311600]</text>
<text text-anchor="middle" x="1550.9863" y="-473.9828" font-family="Times,serif" font-size="14.00" fill="#000000">Avg time: 2.500000 ms, launched 2 time</text>
</g>
<!-- N71 -->
<g id="node13" class="node">
<title>N71</title>
<ellipse fill="none" stroke="#000000" cx="1352.9863" cy="-630.3729" rx="172.9726" ry="41.0911"/>
<text text-anchor="middle" x="1352.9863" y="-642.9729" font-family="Times,serif" font-size="14.00" fill="#000000">Mem op type: Memory Allocation</text>
<text text-anchor="middle" x="1352.9863" y="-626.1729" font-family="Times,serif" font-size="14.00" fill="#000000">Mem ptr: [0x1311600]</text>
<text text-anchor="middle" x="1352.9863" y="-609.3729" font-family="Times,serif" font-size="14.00" fill="#000000">Avg time: 6.500000 ms, launched 2 time</text>
</g>
<!-- N71&#45;&gt;N66 -->
<g id="edge2" class="edge">
<title>N71-&gt;N66</title>
<path fill="none" stroke="#000000" d="M1260.3258,-595.3819C1241.1948,-587.7068 1221.2798,-579.383 1202.8965,-571.0779 1181.6932,-561.4987 1159.1721,-550.4597 1138.2362,-539.8137"/>
<polygon fill="#000000" stroke="#000000" points="1139.5523,-536.5557 1129.0553,-535.1192 1136.3654,-542.7882 1139.5523,-536.5557"/>
<text text-anchor="middle" x="1222.0312" y="-558.4779" font-family="Times,serif" font-size="14.00" fill="#000000">read_1</text>
</g>
<!-- N71&#45;&gt;N66 -->
<g id="edge13" class="edge">
<title>N71-&gt;N66</title>
<path fill="none" stroke="#000000" d="M1301.6237,-590.8873C1283.1988,-577.9854 1261.817,-564.3895 1240.9863,-554.2779 1227.2884,-547.6286 1212.6717,-541.4934 1197.8749,-535.8954"/>
<polygon fill="#000000" stroke="#000000" points="1198.7263,-532.4787 1188.1331,-532.2943 1196.2992,-539.0445 1198.7263,-532.4787"/>
<text text-anchor="middle" x="1293.5312" y="-558.4779" font-family="Times,serif" font-size="14.00" fill="#000000">read_12</text>
</g>
<!-- N71&#45;&gt;N70 -->
<g id="edge9" class="edge">
<title>N71-&gt;N70</title>
<path fill="none" stroke="#000000" d="M1347.2617,-588.8498C1347.6823,-576.6136 1350.4462,-563.9314 1358.0907,-554.2779 1366.5044,-543.653 1387.4502,-534.0346 1412.5849,-525.7846"/>
<polygon fill="#000000" stroke="#000000" points="1413.9197,-529.0337 1422.4058,-522.6904 1411.8162,-522.3572 1413.9197,-529.0337"/>
<text text-anchor="middle" x="1442.9341" y="-558.4779" font-family="Times,serif" font-size="14.00" fill="#000000">Edge:Memory Deallocation_8</text>
</g>
<!-- N71&#45;&gt;N70 -->
<g id="edge20" class="edge">
<title>N71-&gt;N70</title>
<path fill="none" stroke="#000000" d="M1481.8927,-602.8281C1498.9928,-594.8071 1515.0502,-584.4503 1527.9863,-571.0779 1534.6809,-564.1575 1539.4348,-555.3576 1542.8086,-546.2166"/>
<polygon fill="#000000" stroke="#000000" points="1546.1615,-547.2218 1545.8483,-536.6316 1539.489,-545.1057 1546.1615,-547.2218"/>
<text text-anchor="middle" x="1626.4341" y="-558.4779" font-family="Times,serif" font-size="14.00" fill="#000000">Edge:Memory Deallocation_19</text>
</g>
</g>
</svg>